<svg width="620" height="633" viewBox="0 0 620 633" fill="none" xmlns="http://www.w3.org/2000/svg">
<path d="M389.295 557.846C396.34 577.321 386.284 599.07 366.082 603.633C302.061 618.091 234.674 611.218 174.44 583.461C102.79 550.442 47.0304 490.528 19.2355 416.694C-8.5594 342.86 -6.15184 261.05 25.9368 188.978C52.9124 128.39 99.0386 78.7854 156.701 47.4361C174.896 37.5438 196.798 47.2622 204.345 66.5488V66.5488C211.892 85.8355 202.152 107.333 184.384 117.976C144.939 141.602 113.398 176.931 94.4526 219.484C70.3861 273.537 68.5804 334.895 89.4266 390.271C110.273 445.646 152.093 490.581 205.83 515.345C248.134 534.84 295.142 540.6 340.376 532.349C360.75 528.632 382.249 538.37 389.295 557.846V557.846Z" fill="#FB5D63"/>
<path d="M539.271 418.96C558.149 427.478 580.605 419.12 586.702 399.328C594.982 372.453 599.46 344.486 599.954 316.245C600.667 275.474 593.061 234.985 577.6 197.253C562.139 159.52 539.147 125.336 510.031 96.7872C489.862 77.0124 467.048 60.2294 442.291 46.8913C424.058 37.0682 402.194 46.87 394.721 66.1854V66.1854C387.248 85.5007 397.068 106.962 414.876 117.536C430.314 126.703 444.639 137.707 457.523 150.34C479.361 171.752 496.604 197.39 508.2 225.69C519.796 253.989 525.5 284.355 524.966 314.934C524.65 332.975 522.166 350.867 517.6 368.231C512.332 388.261 520.393 410.443 539.271 418.96V418.96Z" fill="#EECB55"/>
<rect x="319.968" y="285.014" width="421.861" height="70" rx="35" transform="rotate(45 319.968 285.014)" fill="#00ACEE"/>
<circle cx="300" cy="42" r="42" fill="#46DBC9"/>
<path d="M469.03 376.959C475.49 379.48 482.813 376.295 484.911 369.685C498.463 326.99 496.855 280.771 480.121 238.942C463.387 197.113 432.673 162.538 393.413 140.97C387.335 137.631 379.836 140.376 376.897 146.657V146.657C373.958 152.939 376.695 160.373 382.741 163.77C416.239 182.594 442.439 212.362 456.804 248.27C471.169 284.178 472.73 323.802 461.458 360.537C459.424 367.167 462.569 374.438 469.03 376.959V376.959Z" fill="#C4C4C4"/>
</svg>
