<?xml version="1.0" standalone="no"?>
<!DOCTYPE svg PUBLIC "-//W3C//DTD SVG 20010904//EN"
 "http://www.w3.org/TR/2001/REC-SVG-20010904/DTD/svg10.dtd">
<svg version="1.0" xmlns="http://www.w3.org/2000/svg"
 width="633.000000pt" height="633.000000pt" viewBox="0 0 633.000000 633.000000"
 preserveAspectRatio="xMidYMid meet">
<metadata>
Created by potrace 1.11, written by Peter Selinger 2001-2013
</metadata>
<g transform="translate(0.000000,633.000000) scale(0.100000,-0.100000)"
fill="#000000" stroke="none">
<path d="M2970 6322 c-52 -9 -147 -61 -197 -108 -29 -27 -53 -55 -53 -61 0 -6
-4 -13 -8 -15 -5 -1 -21 -30 -37 -63 -57 -121 -39 -288 42 -405 191 -272 614
-220 734 90 41 104 32 246 -22 351 -43 85 -154 173 -254 202 -48 14 -151 18
-205 9z"/>
<path d="M1725 5892 c-36 -7 -119 -45 -195 -91 -78 -47 -254 -164 -276 -184
-7 -7 -50 -41 -95 -77 -80 -64 -287 -263 -362 -349 -193 -221 -388 -533 -492
-786 -21 -49 -41 -94 -45 -100 -5 -5 -8 -13 -8 -18 0 -4 -16 -56 -36 -115 -30
-90 -77 -261 -92 -337 -13 -62 -36 -196 -40 -230 -2 -22 -7 -69 -11 -105 -9
-84 -10 -464 -1 -555 12 -117 32 -248 58 -365 5 -25 11 -54 14 -65 8 -39 38
-141 64 -220 14 -44 27 -82 27 -85 1 -3 5 -14 10 -25 4 -11 19 -49 33 -85 63
-165 196 -415 311 -580 24 -36 54 -78 65 -95 12 -16 26 -34 32 -40 6 -5 28
-32 50 -60 57 -73 99 -119 199 -220 124 -124 178 -171 300 -264 22 -17 45 -35
51 -40 31 -26 176 -122 229 -151 33 -19 62 -37 65 -40 10 -13 278 -140 375
-178 95 -38 306 -108 350 -116 11 -2 40 -9 64 -16 45 -12 120 -27 176 -34 17
-3 44 -7 60 -11 30 -6 49 -8 180 -22 90 -10 446 -10 550 0 151 14 167 17 398
62 102 21 217 146 234 258 22 137 -22 266 -119 351 -29 25 -58 46 -64 46 -6 0
-17 6 -23 14 -10 12 -53 26 -131 43 -41 9 -144 9 -157 -1 -7 -5 -13 -6 -13 -4
0 3 -21 1 -47 -3 -128 -24 -406 -32 -578 -17 -79 7 -253 36 -266 44 -4 2 -23
6 -44 10 -62 10 -269 81 -385 133 -119 54 -246 123 -323 177 -26 19 -51 34
-56 34 -5 0 -11 3 -13 8 -1 4 -32 29 -68 57 -124 95 -284 251 -360 351 -25 32
-51 66 -59 74 -60 62 -291 474 -291 518 0 7 -4 20 -9 30 -28 55 -84 233 -97
310 -2 12 -6 33 -9 47 -64 322 -55 724 24 993 5 17 7 32 4 32 -3 0 0 6 6 14 6
8 11 18 9 22 -3 10 41 144 52 159 4 6 11 24 15 40 11 38 9 33 30 80 10 22 19
42 20 45 0 3 27 55 59 115 63 117 106 188 119 193 4 2 7 8 7 13 0 6 4 15 10
22 5 7 35 46 67 87 85 112 210 245 323 341 91 78 288 219 305 219 25 0 185
174 185 201 0 4 5 20 12 36 17 44 19 53 23 126 5 110 -30 202 -105 277 -80 79
-198 120 -295 102z"/>
<path d="M4269 5895 c-4 -3 -16 -8 -28 -10 -85 -16 -196 -118 -232 -214 -39
-105 -30 -235 24 -335 37 -68 108 -136 212 -204 212 -137 342 -246 501 -422
235 -261 439 -659 509 -994 45 -218 53 -307 50 -531 -2 -104 -5 -201 -8 -215
-3 -14 -8 -47 -12 -75 -11 -88 -15 -109 -31 -170 -8 -33 -18 -73 -22 -90 -11
-50 -7 -210 8 -246 24 -63 53 -119 62 -119 4 0 8 -4 8 -9 0 -14 49 -63 88 -90
49 -34 141 -64 197 -63 73 0 195 34 195 53 0 5 4 9 10 9 17 0 59 42 90 90 44
68 107 311 136 520 3 25 8 54 10 65 25 124 25 631 -1 755 -3 14 -7 45 -10 70
-8 67 -16 111 -25 145 -5 17 -11 44 -14 60 -13 83 -91 339 -137 450 -7 17 -13
32 -14 35 -29 85 -163 343 -250 481 -31 49 -176 251 -186 259 -3 3 -30 34 -60
70 -63 77 -230 245 -313 315 -32 28 -64 55 -70 60 -6 6 -38 31 -71 55 -33 25
-62 47 -65 50 -15 16 -160 110 -169 110 -6 0 -11 5 -11 10 0 6 -4 10 -9 10 -5
0 -39 18 -75 40 -36 22 -87 48 -113 58 -47 18 -162 29 -174 17z"/>
<path d="M3894 4925 c-29 -12 -85 -75 -68 -75 5 0 3 -5 -3 -11 -22 -22 4 -91
50 -131 23 -21 45 -38 49 -38 11 0 124 -77 188 -128 108 -86 184 -164 307
-316 8 -10 33 -46 54 -80 21 -34 43 -66 49 -73 5 -7 10 -19 10 -27 0 -8 4 -16
9 -18 12 -4 78 -147 111 -243 71 -204 95 -346 94 -575 0 -120 -10 -265 -20
-281 -2 -3 -6 -21 -9 -40 -3 -19 -13 -61 -22 -94 -8 -33 -16 -65 -17 -72 -1
-7 -5 -15 -8 -18 -10 -10 9 -77 30 -104 10 -14 38 -32 61 -40 90 -29 136 13
174 156 15 54 29 115 33 137 3 21 7 48 10 60 8 41 17 142 18 198 1 32 5 58 9
58 5 0 6 4 3 8 -2 4 -7 70 -11 147 -3 76 -9 143 -12 148 -3 5 -7 25 -8 45 -4
49 -11 84 -30 157 -8 33 -18 70 -20 83 -12 53 -78 221 -126 319 -52 107 -177
301 -246 383 -110 131 -273 277 -413 371 -151 101 -192 117 -246 94z"/>
<path d="M3217 3334 c-1 -2 -16 -5 -32 -8 -98 -18 -193 -93 -242 -194 -21 -43
-27 -72 -29 -135 -2 -44 0 -85 4 -91 3 -6 8 -20 9 -31 2 -10 15 -39 29 -63 15
-26 560 -578 1305 -1323 964 -964 1290 -1284 1327 -1303 220 -112 491 39 507
283 4 69 -7 124 -37 188 -17 37 -306 331 -1305 1329 -1100 1101 -1320 1315
-1353 1319 -3 0 -9 3 -15 6 -22 14 -158 33 -168 23z"/>
</g>
</svg>
